PathFileType	4	(X/Y/Z)	/Users/itak/Documents/Research/Walk-IL/dataset/trc/00526_00183.trc
DataRate	CameraRate	NumFrames	NumMarkers	Units	OrigDataRate	OrigDataStartFrame	OrigNumFrames
100.000000	100.000000	4	53	mm	100.000000	116	466
Frame#	Time	RPSI			LPSI			L3			STRN			T10			C7			CLAV			RBAK			LBAK			LSHO			LUPA			LAEL			LAOL			LWTS			LFRA			LIFD			LHPS			LHTS			RSHO			RUPA			RAEL			RAOL			RWTS			RWPS			RFRA			RIFD			RHTS			RHPS			RBHD			LFHD			RFHD			LBHD			LHIP			RHIP			RASI			LASI			LKNE			LTHI			LANK			LTIP			LTOE			LMT1			LMT5			LHEE			RKNE			RTHI			RANK			RTIP			RTOE			RMT1			RMT5			RHEE			LWPS			
		X1	Y1	Z1	X2	Y2	Z2	X3	Y3	Z3	X4	Y4	Z4	X5	Y5	Z5	X6	Y6	Z6	X7	Y7	Z7	X8	Y8	Z8	X9	Y9	Z9	X10	Y10	Z10	X11	Y11	Z11	X12	Y12	Z12	X13	Y13	Z13	X14	Y14	Z14	X15	Y15	Z15	X16	Y16	Z16	X17	Y17	Z17	X18	Y18	Z18	X19	Y19	Z19	X20	Y20	Z20	X21	Y21	Z21	X22	Y22	Z22	X23	Y23	Z23	X24	Y24	Z24	X25	Y25	Z25	X26	Y26	Z26	X27	Y27	Z27	X28	Y28	Z28	X29	Y29	Z29	X30	Y30	Z30	X31	Y31	Z31	X32	Y32	Z32	X33	Y33	Z33	X34	Y34	Z34	X35	Y35	Z35	X36	Y36	Z36	X37	Y37	Z37	X38	Y38	Z38	X39	Y39	Z39	X40	Y40	Z40	X41	Y41	Z41	X42	Y42	Z42	X43	Y43	Z43	X44	Y44	Z44	X45	Y45	Z45	X46	Y46	Z46	X47	Y47	Z47	X48	Y48	Z48	X49	Y49	Z49	X50	Y50	Z50	X51	Y51	Z51	X52	Y52	Z52	X53	Y53	Z53	

117	1.16	-1187.032836914062	972.7431640625	-474.344970703125	-1119.428100585938	969.417724609375	-577.923095703125	-1156.122802734375	1038.805419921875	-532.0001831054688	-953.1608276367188	1203.256958007812	-427.798828125	-1166.318725585938	1144.65087890625	-533.5947875976562	-1126.602416992188	1374.631958007812	-510.6977233886719	-986.3075561523438	1298.177490234375	-445.0213012695312	-1206.757690429688	1253.323608398438	-454.42822265625	-1111.384765625	1320.12060546875	-599.3505859375	-994.0302124023438	1365.542724609375	-625.833740234375	-978.0147705078125	1239.33349609375	-685.6356201171875	-953.7828369140625	1029.062133789062	-701.322021484375	-1048.2763671875	1019.274719238281	-671.9944458007812	-884.3209838867188	844.488037109375	-629.5769653320312	-937.5865478515625	945.3418579101562	-693.1669311523438	-894.5108032226562	696.6514892578125	-588.4640502929688	-925.1792602539062	749.0624389648438	-666.5700073242188	-871.6121215820312	763.8521728515625	-634.09375	-1141.200561523438	1370.327514648438	-353.2766723632812	-1182.137084960938	1303.117797851562	-309.202880859375	-1191.084350585938	1034.3173828125	-268.6947937011719	-1224.621948242188	1018.513244628906	-323.8378295898438	-1079.296264648438	834.7440795898438	-263.9306335449219	-1165.853881835938	810.666015625	-247.3208160400391	-1188.045654296875	979.9385986328125	-260.9275512695312	-1077.578002929688	673.706787109375	-262.9508972167969	-1072.956176757812	740.3975830078125	-237.9405822753906	-1143.905639648438	737.4481811523438	-240.2085723876953	-1130.374877929688	1531.6640625	-422.7715148925781	-948.6777954101562	1594.064086914062	-482.3265075683594	-1014.477233886719	1587.873046875	-372.8123474121094	-1060.949096679688	1535.111694335938	-566.551025390625	-960.11474609375	893.2332763671875	-628.7899169921875	-1167.4208984375	875.0668334960938	-315.0283203125	-1044.503540039062	916.2662353515625	-315.3683776855469	-920.0250244140625	926.5709838867188	-522.8566284179688	-988.341552734375	470.8052062988281	-583.7454223632812	-957.44091796875	627.6817016601562	-599.0756225585938	-1100.648193359375	51.3453483581543	-617.2890625	-1022.6513671875	320.5687255859375	-600.544677734375	-955.7400512695312	39.03530120849609	-469.7818908691406	-1039.853393554688	42.91484451293945	-479.3035888671875	-999.921142578125	46.68567276000977	-572.5894165039062	-1171.236572265625	49.46361541748047	-584.4093017578125	-1165.6396484375	487.2745361328125	-324.7041015625	-1151.22412109375	746.6896362304688	-292.5468444824219	-1220.238037109375	48.41324615478516	-363.8826293945312	-1165.032104492188	342.7567749023438	-334.2547302246094	-1019.119445800781	47.61141586303711	-325.1307373046875	-1066.150146484375	52.73895645141602	-385.7038879394531	-1121.774658203125	44.57712554931641	-305.9486083984375	-1248.806274414062	39.52213668823242	-428.5179748535156	-946.5845336914062	802.219482421875	-686.2754516601562	
118	1.17	-1186.193969726562	972.7053833007812	-475.2232971191406	-1118.63818359375	969.3256225585938	-578.8248901367188	-1154.983520507812	1039.056640625	-532.7476806640625	-951.8450317382812	1203.041870117188	-428.6319274902344	-1165.021362304688	1144.817260742188	-534.21435546875	-1125.10107421875	1374.725708007812	-511.1961975097656	-984.8960571289062	1297.998046875	-445.7201843261719	-1205.38671875	1253.503173828125	-454.952392578125	-1110.04833984375	1320.278198242188	-599.9413452148438	-992.6735229492188	1365.608276367188	-626.4593505859375	-976.724365234375	1239.456909179688	-686.4030151367188	-952.5266723632812	1029.177490234375	-702.209228515625	-1047.1689453125	1019.451049804688	-673.220947265625	-883.5236206054688	844.550048828125	-630.0077514648438	-936.3482055664062	945.4705810546875	-694.1016845703125	-895.1570434570312	697.0631103515625	-587.599853515625	-924.2625122070312	748.86474609375	-666.7323608398438	-871.2045288085938	763.7388916015625	-633.5198974609375	-1139.533203125	1370.3076171875	-353.7649841308594	-1180.498901367188	1303.137817382812	-309.6800842285156	-1189.818725585938	1034.342163085938	-269.3127136230469	-1223.494140625	1018.599548339844	-324.4134826660156	-1078.292724609375	834.6268310546875	-264.8117980957031	-1164.880249023438	810.6461791992188	-248.1116790771484	-1186.845703125	979.9697875976562	-261.5661010742188	-1076.788208007812	673.5947265625	-263.9609069824219	-1072.060913085938	740.244140625	-238.8947143554688	-1142.984497070312	737.3944702148438	-241.0954284667969	-1128.959594726562	1531.339965820312	-423.0546569824219	-947.3792724609375	1594.198486328125	-482.5108032226562	-1013.13720703125	1587.733276367188	-372.9855041503906	-1059.574096679688	1535.181640625	-566.8463134765625	-959.229736328125	893.2213134765625	-629.751708984375	-1166.669921875	875.1153564453125	-315.8807373046875	-1043.633056640625	916.3773803710938	-316.2718811035156	-919.2177734375	926.4921264648438	-523.8112182617188	-987.7598876953125	470.6652526855469	-584.1715087890625	-956.7899169921875	627.5221557617188	-599.6846923828125	-1100.606567382812	51.24854278564453	-617.4203491210938	-1022.294738769531	320.3447570800781	-600.8359985351562	-955.7960205078125	39.03205871582031	-469.7443542480469	-1039.85498046875	42.93191909790039	-479.3403015136719	-999.900146484375	46.64548110961914	-572.6341552734375	-1171.223510742188	49.44349670410156	-584.4724731445312	-1163.966796875	487.3011474609375	-325.0241394042969	-1150.108642578125	746.7730102539062	-293.2578430175781	-1220.16357421875	48.48449325561523	-363.9706726074219	-1163.470092773438	342.6341247558594	-334.5068054199219	-1019.126953125	47.62671661376953	-325.1712036132812	-1066.068481445312	52.62017059326172	-385.8071899414062	-1121.722045898438	44.60408782958984	-306.02783203125	-1248.760375976562	39.54450225830078	-428.614501953125	-945.0692138671875	802.0905151367188	-687.3739013671875	
119	1.18	-1185.34130859375	972.6597900390625	-476.1278991699219	-1117.836669921875	969.2130126953125	-579.7550048828125	-1153.816528320312	1039.311401367188	-533.5159301757812	-950.4868774414062	1202.8154296875	-429.5023803710938	-1163.682861328125	1144.986206054688	-534.84814453125	-1123.54931640625	1374.821533203125	-511.7060852050781	-983.4368286132812	1297.81103515625	-446.4556884765625	-1203.969604492188	1253.682739257812	-455.4957885742188	-1108.659057617188	1320.440673828125	-600.5538940429688	-991.2725830078125	1365.685180664062	-627.1001586914062	-975.3858642578125	1239.590454101562	-687.2070922851562	-951.1736450195312	1029.313110351562	-703.1380615234375	-1045.974365234375	1019.627197265625	-674.5255737304688	-882.7156982421875	844.616943359375	-630.35400390625	-935.0074462890625	945.6157836914062	-695.0516967773438	-895.9591064453125	697.4744873046875	-586.7432250976562	-923.3600463867188	748.6986083984375	-666.8880004882812	-870.8218994140625	763.6458740234375	-632.8400268554688	-1137.80810546875	1370.275146484375	-354.2691040039062	-1178.800659179688	1303.144653320312	-310.1763000488281	-1188.517578125	1034.362548828125	-269.9583435058594	-1222.331420898438	1018.679626464844	-325.021240234375	-1077.255737304688	834.5015258789062	-265.7033996582031	-1163.872924804688	810.6183471679688	-248.92236328125	-1185.617797851562	979.9899291992188	-262.231689453125	-1075.95263671875	673.4816284179688	-264.987060546875	-1071.125610351562	740.08642578125	-239.8654479980469	-1142.028198242188	737.329833984375	-242.0065765380859	-1127.52490234375	1530.97314453125	-423.3447265625	-946.0785522460938	1594.3447265625	-482.6692504882812	-1011.797546386719	1587.567138671875	-373.14794921875	-1058.16845703125	1535.26171875	-567.142578125	-958.3150024414062	893.2139892578125	-630.73583984375	-1165.836791992188	875.1420288085938	-316.7037048339844	-1042.750122070312	916.4982299804688	-317.2025451660156	-918.3753662109375	926.4114379882812	-524.7777099609375	-987.1661987304688	470.4751281738281	-584.6258544921875	-956.090576171875	627.3486328125	-600.3013305664062	-1100.556762695312	51.14738082885742	-617.5609741210938	-1021.896057128906	320.1257934570312	-601.1307373046875	-955.8552856445312	39.02938842773438	-469.7079772949219	-1039.859741210938	42.95452117919922	-479.3835144042969	-999.8775024414062	46.59682083129883	-572.686767578125	-1171.205078125	49.41377258300781	-584.5628662109375	-1162.135620117188	487.3232116699219	-325.3344421386719	-1148.950561523438	746.8583984375	-293.9878540039062	-1220.087280273438	48.5620002746582	-364.0580749511719	-1161.748779296875	342.4971008300781	-334.7289428710938	-1019.140197753906	47.64830017089844	-325.2075500488281	-1065.976318359375	52.49886703491211	-385.9165954589844	-1121.661987304688	44.62968444824219	-306.1198120117188	-1248.716796875	39.5760383605957	-428.7129211425781	-943.4558715820312	801.9501953125	-688.4422607421875	
120	1.19	-1184.482543945312	972.6055908203125	-477.0596008300781	-1117.029296875	969.0795288085938	-580.7151489257812	-1152.622192382812	1039.565063476562	-534.3067016601562	-949.0906372070312	1202.574829101562	-430.4127502441406	-1162.30908203125	1145.161499023438	-535.4988403320312	-1121.950073242188	1374.92138671875	-512.2274169921875	-981.9314575195312	1297.616088867188	-447.2274475097656	-1202.5068359375	1253.862670898438	-456.0570373535156	-1107.21728515625	1320.608764648438	-601.1856079101562	-989.8257446289062	1365.773315429688	-627.7538452148438	-973.9948120117188	1239.735961914062	-688.040283203125	-949.7177734375	1029.469848632812	-704.0936279296875	-1044.683837890625	1019.802856445312	-675.8948974609375	-881.8981323242188	844.6802978515625	-630.61572265625	-933.560791015625	945.7780151367188	-695.9994506835938	-896.8831176757812	697.86181640625	-585.9415893554688	-922.4586181640625	748.5833129882812	-667.0602416992188	-870.4762573242188	763.5618286132812	-632.0908203125	-1136.026611328125	1370.225952148438	-354.7875061035156	-1177.047607421875	1303.131591796875	-310.6937255859375	-1187.188598632812	1034.373168945312	-270.6300354003906	-1221.134521484375	1018.752746582031	-325.6607360839844	-1076.190551757812	834.3641967773438	-266.5964965820312	-1162.834594726562	810.5794677734375	-249.7460174560547	-1184.370727539062	979.9927978515625	-262.9244384765625	-1075.071166992188	673.3623657226562	-266.0174255371094	-1070.151245117188	739.9223022460938	-240.8430633544922	-1141.040649414062	737.2515258789062	-242.9305572509766	-1126.071411132812	1530.564819335938	-423.6423950195312	-944.77587890625	1594.504760742188	-482.8060607910156	-1010.46240234375	1587.372436523438	-373.3032836914062	-1056.730346679688	1535.345947265625	-567.4400024414062	-957.3838500976562	893.1976318359375	-631.7321166992188	-1164.953247070312	875.1587524414062	-317.5093994140625	-1041.860229492188	916.6290893554688	-318.1601257324219	-917.506103515625	926.322021484375	-525.7546997070312	-986.5516357421875	470.2394409179688	-585.10498046875	-955.3347778320312	627.161865234375	-600.917724609375	-1100.4970703125	51.04661560058594	-617.7061767578125	-1021.460693359375	319.905029296875	-601.4307250976562	-955.9161987304688	39.027099609375	-469.6747741699219	-1039.866455078125	42.98202514648438	-479.4338073730469	-999.8521728515625	46.53858184814453	-572.7493896484375	-1171.18115234375	49.37459564208984	-584.6819458007812	-1160.118041992188	487.3423767089844	-325.628173828125	-1147.7509765625	746.9443969726562	-294.7377624511719	-1220.005004882812	48.64917755126953	-364.1465454101562	-1159.843139648438	342.3374938964844	-334.9081726074219	-1019.156921386719	47.67425155639648	-325.2391052246094	-1065.874755859375	52.37271118164062	-386.03125	-1121.594116210938	44.65535354614258	-306.2218933105469	-1248.675659179688	39.62767791748047	-428.8094177246094	-941.750732421875	801.8193359375	-689.4705810546875	
